<?xml version="1.0" standalone="no"?>
<!DOCTYPE svg PUBLIC "-//W3C//DTD SVG 20010904//EN"
 "http://www.w3.org/TR/2001/REC-SVG-20010904/DTD/svg10.dtd">
<svg version="1.0" xmlns="http://www.w3.org/2000/svg"
 width="2048.000000pt" height="2048.000000pt" viewBox="0 0 2048.000000 2048.000000"
 preserveAspectRatio="xMidYMid meet">
<metadata>
Created by potrace 1.11, written by Peter Selinger 2001-2013
</metadata>
<g transform="translate(0.000000,2048.000000) scale(0.100000,-0.100000)"
fill="#000000" stroke="none">
<path d="M12800 20160 l0 -320 320 0 320 0 0 -640 0 -640 960 0 960 0 0 -320
0 -320 -960 0 -960 0 0 -320 0 -320 320 0 320 0 0 -320 0 -320 -320 0 -320 0
0 -320 0 -320 320 0 320 0 0 -320 0 -320 1280 0 1280 0 0 -320 0 -320 -1600 0
-1600 0 0 320 0 320 -640 0 -640 0 0 320 0 320 -640 0 -640 0 0 -320 0 -320
-320 0 -320 0 0 320 0 320 -960 0 -960 0 0 320 0 320 -320 0 -320 0 0 320 0
320 -1600 0 -1600 0 0 -320 0 -320 -960 0 -960 0 0 -320 0 -320 -960 0 -960 0
0 -320 0 -320 4800 0 4800 0 0 -320 0 -320 1600 0 1600 0 0 -320 0 -320 640 0
640 0 0 -320 0 -320 1920 0 1920 0 0 -320 0 -320 -2240 0 -2240 0 0 -320 0
-320 -320 0 -320 0 0 320 0 320 -320 0 -320 0 0 320 0 320 -960 0 -960 0 0
320 0 320 -960 0 -960 0 0 -640 0 -640 320 0 320 0 0 -320 0 -320 -320 0 -320
0 0 -320 0 -320 320 0 320 0 0 -4160 0 -4160 -1600 0 -1600 0 0 320 0 320
1280 0 1280 0 0 320 0 320 -320 0 -320 0 0 320 0 320 -1600 0 -1600 0 0 320 0
320 1600 0 1600 0 0 320 0 320 320 0 320 0 0 320 0 320 -1600 0 -1600 0 0 320
0 320 1280 0 1280 0 0 320 0 320 -320 0 -320 0 0 320 0 320 -1280 0 -1280 0 0
320 0 320 1280 0 1280 0 0 320 0 320 320 0 320 0 0 320 0 320 -1920 0 -1920 0
0 320 0 320 960 0 960 0 0 320 0 320 320 0 320 0 0 320 0 320 -1600 0 -1600 0
0 320 0 320 640 0 640 0 0 320 0 320 -640 0 -640 0 0 320 0 320 -960 0 -960 0
0 -320 0 -320 -320 0 -320 0 0 320 0 320 -640 0 -640 0 0 -7360 0 -7360 5760
0 5760 0 0 320 0 320 320 0 320 0 0 320 0 320 960 0 960 0 0 -320 0 -320 -640
0 -640 0 0 -320 0 -320 960 0 960 0 0 640 0 640 320 0 320 0 0 640 0 640 -320
0 -320 0 0 320 0 320 -320 0 -320 0 0 320 0 320 -320 0 -320 0 0 320 0 320
-320 0 -320 0 0 320 0 320 1280 0 1280 0 0 320 0 320 -640 0 -640 0 0 320 0
320 -320 0 -320 0 0 640 0 640 320 0 320 0 0 1280 0 1280 -960 0 -960 0 0
-960 0 -960 -320 0 -320 0 0 -320 0 -320 -320 0 -320 0 0 320 0 320 -320 0
-320 0 0 1920 0 1920 1600 0 1600 0 0 -320 0 -320 320 0 320 0 0 320 0 320
640 0 640 0 0 -320 0 -320 1920 0 1920 0 0 -320 0 -320 -2240 0 -2240 0 0
-320 0 -320 960 0 960 0 0 -320 0 -320 1600 0 1600 0 0 -320 0 -320 -1920 0
-1920 0 0 -320 0 -320 -320 0 -320 0 0 -320 0 -320 1600 0 1600 0 0 -320 0
-320 -1600 0 -1600 0 0 -320 0 -320 320 0 320 0 0 -320 0 -320 1920 0 1920 0
0 -320 0 -320 -1920 0 -1920 0 0 -320 0 -320 320 0 320 0 0 -320 0 -320 320 0
320 0 0 -960 0 -960 320 0 320 0 0 -640 0 -640 -320 0 -320 0 0 320 0 320
-640 0 -640 0 0 -320 0 -320 -320 0 -320 0 0 -320 0 -320 2560 0 2560 0 0
3520 0 3520 -640 0 -640 0 0 320 0 320 640 0 640 0 0 2560 0 2560 -640 0 -640
0 0 320 0 320 640 0 640 0 0 3520 0 3520 -3840 0 -3840 0 0 -320z m7040 -5120
l0 -320 -1280 0 -1280 0 0 320 0 320 1280 0 1280 0 0 -320z m-16640 -1920 l0
-320 -640 0 -640 0 0 320 0 320 640 0 640 0 0 -320z m640 -1920 l0 -320 -1280
0 -1280 0 0 320 0 320 1280 0 1280 0 0 -320z m640 -1920 l0 -320 -320 0 -320
0 0 320 0 320 320 0 320 0 0 -320z m8960 0 l0 -320 -320 0 -320 0 0 320 0 320
320 0 320 0 0 -320z m-8320 -1920 l0 -320 -960 0 -960 0 0 320 0 320 960 0
960 0 0 -320z m5760 -1600 l0 -640 320 0 320 0 0 -320 0 -320 320 0 320 0 0
-640 0 -640 -320 0 -320 0 0 -320 0 -320 -320 0 -320 0 0 -960 0 -960 -320 0
-320 0 0 320 0 320 -1280 0 -1280 0 0 320 0 320 640 0 640 0 0 320 0 320 320
0 320 0 0 320 0 320 320 0 320 0 0 1600 0 1600 320 0 320 0 0 -640z m-5120
-2240 l0 -320 -960 0 -960 0 0 320 0 320 960 0 960 0 0 -320z m1280 -1920 l0
-320 -640 0 -640 0 0 320 0 320 640 0 640 0 0 -320z"/>
<path d="M6400 19520 l0 -320 -960 0 -960 0 0 -320 0 -320 3840 0 3840 0 0
320 0 320 -320 0 -320 0 0 320 0 320 -2560 0 -2560 0 0 -320z"/>
</g>
</svg>
